<?xml version="1.0" standalone="no"?>
<!DOCTYPE svg PUBLIC "-//W3C//DTD SVG 20010904//EN"
 "http://www.w3.org/TR/2001/REC-SVG-20010904/DTD/svg10.dtd">
<svg version="1.0" xmlns="http://www.w3.org/2000/svg"
 width="1000.000000pt" height="1000.000000pt" viewBox="0 0 1000.000000 1000.000000"
 preserveAspectRatio="xMidYMid meet">

<g transform="translate(0.000000,1000.000000) scale(0.100000,-0.100000)"
fill="#000000" stroke="none">
<path d="M7150 7524 c-101 -27 -181 -73 -255 -148 -114 -115 -165 -236 -165
-391 1 -102 12 -152 57 -244 63 -128 161 -215 315 -280 l63 -26 550 -5 c540
-6 551 -6 620 -29 135 -44 222 -98 320 -196 102 -102 144 -167 189 -292 30
-85 31 -94 31 -248 0 -154 -1 -163 -31 -248 -45 -125 -87 -189 -189 -293 -76
-77 -104 -98 -185 -137 -125 -62 -189 -77 -343 -84 l-128 -6 3 -86 3 -86 120
2 c464 7 852 341 926 798 16 102 6 278 -21 375 -93 327 -344 581 -665 671 -77
22 -100 23 -620 29 -335 4 -551 10 -570 17 -107 37 -190 109 -235 205 -36 76
-46 150 -30 231 35 182 173 302 364 316 l81 6 0 80 0 80 -75 2 c-41 1 -100 -5
-130 -13z"/>
<path d="M3745 7044 c-96 -21 -202 -75 -273 -140 -108 -97 -184 -248 -186
-367 l-1 -62 82 -3 82 -3 6 38 c18 118 54 190 129 261 31 29 82 65 113 80 52
24 69 27 168 27 105 0 114 -2 177 -33 85 -41 152 -109 192 -192 29 -61 31 -72
31 -180 0 -107 -2 -119 -29 -175 -35 -72 -123 -163 -187 -193 -26 -13 -73 -27
-105 -34 -33 -6 -64 -12 -71 -14 -13 -3 -13 -157 0 -170 16 -16 172 25 256 67
152 75 268 221 307 385 21 91 15 236 -15 318 -65 183 -216 326 -400 380 -82
24 -195 28 -276 10z"/>
<path d="M1613 6550 c-45 -18 -51 -44 -63 -273 -7 -120 -9 -228 -6 -240 8 -33
358 -357 460 -427 48 -33 90 -60 93 -60 3 0 26 -17 52 -38 203 -169 579 -480
835 -692 169 -140 312 -257 317 -259 6 -1 27 16 47 40 62 72 65 78 51 95 -7 9
-146 125 -308 259 -776 638 -1366 1131 -1368 1145 -2 8 56 76 129 150 l133
135 555 0 555 0 0 85 0 85 -730 2 c-406 1 -740 -2 -752 -7z"/>
<path d="M4610 6471 l0 -90 558 -3 557 -4 123 -27 c68 -16 162 -42 210 -58
208 -73 464 -219 672 -385 106 -85 363 -341 457 -454 151 -184 317 -422 408
-584 l38 -68 -13 -72 c-43 -248 -192 -560 -394 -826 l-79 -104 59 -53 c32 -29
64 -53 69 -53 16 0 165 201 239 322 157 257 271 552 292 755 6 58 5 65 -34
136 -166 308 -414 639 -672 898 -459 459 -925 701 -1445 749 -60 5 -320 10
-577 10 l-468 0 0 -89z"/>
<path d="M2940 6198 c-137 -69 -110 -267 40 -308 115 -31 235 88 201 200 -33
111 -140 159 -241 108z"/>
<path d="M5504 4765 c10 -115 41 -220 95 -330 134 -270 374 -456 662 -513 l94
-18 3 -196 2 -197 31 -25 c31 -26 31 -26 225 -26 l194 0 0 90 0 90 -134 0
-134 0 -3 190 c-4 188 -4 190 -30 215 -22 23 -38 27 -115 35 -201 19 -343 81
-477 208 -137 132 -213 286 -234 478 l-8 69 -89 3 -89 3 7 -76z"/>
<path d="M3467 4443 c-4 -3 -7 -170 -7 -369 l0 -364 -65 -51 c-36 -28 -70 -59
-75 -69 -18 -34 -11 -71 19 -101 l29 -29 235 0 c268 0 258 -3 318 92 18 29
111 171 206 316 95 145 173 265 173 266 0 7 -127 86 -138 86 -7 0 -98 -130
-203 -290 l-191 -290 -64 0 -64 0 0 405 0 405 -83 0 c-46 0 -87 -3 -90 -7z"/>
<path d="M5831 3748 c-115 -143 -131 -167 -131 -199 0 -29 7 -43 31 -63 l31
-26 212 0 213 0 6 48 c3 26 2 65 -2 87 l-6 40 -103 3 c-56 1 -102 5 -102 8 0
3 27 40 60 81 33 41 60 78 60 82 0 10 -115 101 -128 101 -6 0 -69 -73 -141
-162z"/>
<path d="M4947 3873 c-13 -13 -8 -150 7 -162 9 -8 103 -11 322 -9 l309 3 0 85
0 85 -316 3 c-173 1 -318 -1 -322 -5z"/>
<path d="M4607 3864 c-4 -4 -7 -56 -7 -116 l0 -108 -39 0 c-37 0 -39 1 -45 39
-5 35 -16 47 -89 104 -45 35 -87 66 -93 70 -11 6 -104 -111 -104 -131 0 -6 12
-19 27 -30 l28 -20 -48 -42 c-38 -34 -47 -48 -47 -75 0 -90 17 -95 300 -95
l232 0 29 29 29 30 -2 173 -3 173 -80 3 c-45 1 -84 0 -88 -4z"/>
</g>
</svg>
